<svg xmlns="http://www.w3.org/2000/svg" width="36" height="36" viewBox="0 0 36 36">
    <path fill="#0095FF" fill-rule="nonzero" d="M28.148 0c-1.033 0-1.936.802-1.98 1.867h-.023v.068l-1.35 13.973a.714.714 0 0 0-.315-.068h-.72v-4.32a.718.718 0 0 0-1.035-.652L12.24 15.75v-3.51a.718.718 0 0 0-1.058-.63l-10.8 5.76A.721.721 0 0 0 0 18v17.28c0 .397.323.72.72.72h34.56a.72.72 0 0 0 .72-.765L33.975 1.98v-.045C33.868.875 33.047 0 31.972 0h-3.825zm0 1.44h3.825c.213 0 .506.273.562.63l1.98 32.49H1.44V18.427l9.36-4.995v3.128c0 .397.323.72.72.72h.72a.714.714 0 0 0 .315-.068l9.765-4.567v3.915c0 .397.323.72.72.72h.72v9.36c-.02.397.29.734.686.754.397.02.734-.29.754-.686v-.068l2.363-24.637a.633.633 0 0 0 .022-.068c0-.335.177-.495.563-.495zm-23.108 18v3.6H7.2v-3.6H5.04zm6.48 0v3.6h2.16v-3.6h-2.16zm6.48 0v3.6h2.16v-3.6H18zM5.04 25.92v3.6H7.2v-3.6H5.04zm6.48 0v3.6h2.16v-3.6h-2.16zm6.48 0v3.6h2.16v-3.6H18z"/>
</svg>
