<svg xmlns="http://www.w3.org/2000/svg" width="16" height="16" viewBox="0 0 16 16">
    <g fill="#FFF" fill-rule="nonzero">
        <path d="M3.557 2.156L.292 3.763l8.224 4.08 3.108-1.538zM12.193 6.024l3.529-1.747L7.599.281a.262.262 0 0 0-.23 0L4.126 1.876l8.066 4.148zM12.364 6.507a.259.259 0 0 1-.108.054L8.774 8.284v7.62l7.083-3.486A.254.254 0 0 0 16 12.19V4.708l-3.636 1.8zM8.258 8.283L0 4.187v7.496c0 .096.055.184.143.227l8.115 3.993v-7.62zm-2.18 3.484L2.465 9.99a.253.253 0 0 1-.142-.227V8.27c0-.189.201-.312.373-.227L6.309 9.82c.087.043.143.131.143.227v1.493a.258.258 0 0 1-.374.227z"/>
    </g>
</svg>
